<svg version="1.1" id="Camada_1" xmlns="http://www.w3.org/2000/svg" xmlns:xlink="http://www.w3.org/1999/xlink" x="0px" y="0px" viewBox="0 0 156 48" style="enable-background:new 0 0 156 48;" xml:space="preserve">
<circle style="fill:#6D28D9;" cx="132" cy="24" r="24"/>
<path style="opacity:0.55;fill:#6D28D9;" d="M34,24c0-6.65,2.5-12.72,6.61-17.31C36.3,2.55,30.45,0,24,0C10.75,0,0,10.75,0,24
	s10.75,24,24,24c6.45,0,12.3-2.55,16.61-6.69C36.5,36.72,34,30.65,34,24z"/>
<path style="opacity:0.7;fill:#6D28D9;" d="M70,24c0-6.65,2.5-12.72,6.61-17.31C72.3,2.55,66.45,0,60,0C46.75,0,36,10.75,36,24
	s10.75,24,24,24c6.45,0,12.3-2.55,16.61-6.69C72.5,36.72,70,30.65,70,24z"/>
<path style="opacity:0.85;fill:#6D28D9;" d="M106,24c0-6.65,2.5-12.72,6.61-17.31C108.3,2.55,102.45,0,96,0C82.75,0,72,10.75,72,24
	s10.75,24,24,24c6.45,0,12.3-2.55,16.61-6.69C108.5,36.72,106,30.65,106,24z"/>
</svg>
