<svg version="1.1" xmlns="http://www.w3.org/2000/svg" xmlns:xlink="http://www.w3.org/1999/xlink" fill="#6d28d9" x="0px" y="0px" viewBox="0 0 30 30" style="enable-background:new 0 0 30 30;" xml:space="preserve"><g><path d="M14.08,30c-2.64-0.9-4.97-2.03-6.57-4.25c-1.44-2.01-1.61-4.15-0.4-6.33c0.93-1.67,1-3.29-0.17-4.86 c-1.7-2.28-4.41-2.52-6.89-0.67c0.34-0.81,0.65-1.64,1.04-2.44c0.73-1.51,1.68-2.86,3.04-3.87c2.06-1.53,4.24-1.74,6.52-0.49 c0.91,0.5,1.86,0.83,2.91,0.64c1.79-0.32,3.01-1.4,3.6-3.07c0.55-1.57,0.09-3.04-0.9-4.35c-0.05-0.07-0.11-0.13-0.25-0.3 c2.58,0.88,4.87,1.98,6.47,4.12c1.59,2.12,1.67,4.35,0.4,6.67c-1.41,2.58-0.1,5.65,2.74,6.41c1.43,0.38,2.77-0.01,3.96-0.86 c0.11-0.08,0.21-0.17,0.36-0.23c-0.89,2.66-2.08,5.13-4.55,6.69c-1.94,1.23-3.96,1.24-5.97,0.12c-1.02-0.57-2.08-0.88-3.23-0.57 c-2.95,0.77-4.85,4.2-2.34,7.39C13.9,29.79,13.94,29.84,14.08,30z M15.05,16.75c0.98,0,1.74-0.76,1.74-1.75c0-1-0.8-1.78-1.79-1.76 c-0.93,0.02-1.71,0.8-1.72,1.73C13.26,15.96,14.06,16.75,15.05,16.75z"/></g></svg>
